<svg width="64" height="64" viewBox="0 0 64 64" fill="none" xmlns="http://www.w3.org/2000/svg">
<path d="M32 0L59.7128 16V48L32 64L4.28719 48V16L32 0Z" fill="#F59E0B"/>
<path d="M25.8667 37.3333L29.9333 33.2667L32.6 35.9333L37.3333 31.2333V33.3333H40V26.6667H33.3333V29.3333H35.4333L32.6 32.1667L29.9333 29.5L24 35.4667L25.8667 37.3333ZM22.6667 44C21.9333 44 21.3053 43.7387 20.7827 43.216C20.26 42.6933 19.9991 42.0658 20 41.3333V22.6667C20 21.9333 20.2613 21.3053 20.784 20.7827C21.3067 20.26 21.9342 19.9991 22.6667 20H41.3333C42.0667 20 42.6947 20.2613 43.2173 20.784C43.74 21.3067 44.0009 21.9342 44 22.6667V41.3333C44 42.0667 43.7387 42.6947 43.216 43.2173C42.6933 43.74 42.0658 44.0009 41.3333 44H22.6667ZM22.6667 41.3333H41.3333V22.6667H22.6667V41.3333Z" fill="white"/>
</svg>
