<svg width="64" height="64" viewBox="0 0 64 64" fill="none" xmlns="http://www.w3.org/2000/svg">
<path d="M32 0L59.7128 16V48L32 64L4.28719 48V16L32 0Z" fill="#F59E0B"/>
<g clip-path="url(#clip0_1201_75)">
<path d="M32 16C27.7575 16 23.685 17.6868 20.6875 20.6863C17.6869 23.6869 16.0008 27.7565 16 32C16 36.2417 17.6875 40.3142 20.6875 43.3137C23.685 46.3132 27.7575 48 32 48C36.2425 48 40.315 46.3132 43.3125 43.3137C46.3125 40.3142 48 36.2417 48 32C48 27.7583 46.3125 23.6858 43.3125 20.6863C40.315 17.6868 36.2425 16 32 16Z" fill="url(#paint0_linear_1201_75)"/>
<path d="M23.2412 31.831C27.9062 29.799 31.0162 28.4592 32.5712 27.812C37.0162 25.9637 37.9387 25.6427 38.5412 25.6319C38.6737 25.6297 38.9687 25.6625 39.1612 25.8181C39.3212 25.9494 39.3662 26.1269 39.3887 26.2515C39.4087 26.376 39.4362 26.6597 39.4137 26.8812C39.1737 29.4112 38.1312 35.5507 37.6012 38.3845C37.3787 39.5835 36.9362 39.9855 36.5087 40.0247C35.5787 40.1102 34.8737 39.4107 33.9737 38.821C32.5662 37.8977 31.7712 37.3232 30.4037 36.4225C28.8237 35.3815 29.8487 34.8092 30.7487 33.8742C30.9837 33.6295 35.0787 29.9057 35.1562 29.568C35.1662 29.5257 35.1762 29.3682 35.0812 29.2852C34.9887 29.202 34.8512 29.2305 34.7512 29.253C34.6087 29.285 32.3612 30.772 28.0012 33.7137C27.3637 34.1522 26.7862 34.366 26.2662 34.3547C25.6962 34.3425 24.5962 34.0317 23.7787 33.7662C22.7787 33.4405 21.9812 33.2682 22.0512 32.715C22.0862 32.427 22.4837 32.1322 23.2412 31.831Z" fill="white"/>
</g>
<defs>
<linearGradient id="paint0_linear_1201_75" x1="1616" y1="16" x2="1616" y2="3216" gradientUnits="userSpaceOnUse">
<stop stop-color="#2AABEE"/>
<stop offset="1" stop-color="#229ED9"/>
</linearGradient>
<clipPath id="clip0_1201_75">
<rect width="32" height="32" fill="white" transform="translate(16 16)"/>
</clipPath>
</defs>
</svg>
