<svg width="64" height="64" viewBox="0 0 64 64" fill="none" xmlns="http://www.w3.org/2000/svg">
<path d="M32 0L59.7128 16V48L32 64L4.28719 48V16L32 0Z" fill="#F59E0B"/>
<path d="M44.724 25.1397C44.7435 25.4219 44.7435 25.7039 44.7435 25.9887C44.7435 34.6637 38.1393 44.6687 26.0635 44.6687V44.6637C22.496 44.6687 19.0025 43.6468 16 41.7202C16.5188 41.7827 17.04 41.8139 17.5625 41.8152C20.5193 41.8176 23.391 40.8259 25.7163 38.9994C24.3462 38.9736 23.0186 38.5202 21.9189 37.7027C20.8191 36.8853 20.0024 35.7446 19.5828 34.4402C20.567 34.6302 21.581 34.5909 22.547 34.3269C19.484 33.7082 17.2805 31.0172 17.2805 27.8919V27.8087C18.1936 28.3174 19.2155 28.5992 20.2603 28.6304C17.375 26.7024 16.4863 22.8647 18.2283 19.8644C19.8765 21.8926 21.9329 23.5514 24.264 24.733C26.595 25.9146 29.1486 26.5927 31.7587 26.7232C31.4986 25.6029 31.5371 24.4339 31.8704 23.3331C32.2038 22.2324 32.8203 21.2384 33.6583 20.4507C36.3025 17.9649 40.4613 18.0924 42.9468 20.7354C44.4171 20.4451 45.827 19.906 47.116 19.1414C46.6259 20.6616 45.6003 21.952 44.23 22.7727C45.5314 22.6192 46.8023 22.2708 48 21.7389C47.119 23.0583 46.0096 24.21 44.724 25.1397Z" fill="#1D9BF0"/>
</svg>
